HIERARCHY
ROOT SpineBase
{
  OFFSET 0.000000 0.000000 0.000000
  CHANNELS 6 Xposition Yposition Zposition Zrotation Xrotation Yrotation
  JOINT SpineMid
  {
    OFFSET 0.000000 34.992109 0.000000
    CHANNELS 3 Zrotation Xrotation Yrotation
    JOINT SpineShoulder
    {
      OFFSET -0.282189 25.883916 -0.788988
      CHANNELS 3 Zrotation Xrotation Yrotation
      JOINT Neck
      {
        OFFSET -0.192007 8.578792 -0.636142
        CHANNELS 3 Zrotation Xrotation Yrotation
        JOINT Head
        {
          OFFSET -2.450399 7.650709 2.095464
          CHANNELS 3 Zrotation Xrotation Yrotation
          End Site
          {
            OFFSET 0 0 0
          }
        }
      }
      JOINT ShoulderLeft
      {
        OFFSET -14.787333 -11.765861 -14.141807
        CHANNELS 3 Zrotation Xrotation Yrotation
        JOINT ElbowLeft
        {
          OFFSET -3.426163 -22.736892 1.621819
          CHANNELS 3 Zrotation Xrotation Yrotation
          JOINT WristLeft
          {
            OFFSET -2.195156 -21.065223 6.811731
            CHANNELS 3 Zrotation Xrotation Yrotation
            JOINT HandLeft
            {
              OFFSET 2.016040 -3.792131 2.098381
              CHANNELS 3 Zrotation Xrotation Yrotation
              JOINT HandTipLeft
              {
                OFFSET 1.431932 -8.696574 1.939710
                CHANNELS 3 Zrotation Xrotation Yrotation
                End Site
                {
                  OFFSET 0 0 0
                }
              }
              JOINT ThumbLeft
              {
                OFFSET 1.765152 -0.846733 -5.347438
                CHANNELS 3 Zrotation Xrotation Yrotation
                End Site
                {
                  OFFSET 0 0 0
                }
              }
            }
          }
        }
      }
      JOINT ShoulderRight
      {
        OFFSET 10.918488 -6.138257 -5.459001
        CHANNELS 3 Zrotation Xrotation Yrotation
        JOINT ElbowRight
        {
          OFFSET 11.336940 -22.390083 8.233471
          CHANNELS 3 Zrotation Xrotation Yrotation
          JOINT WristRight
          {
            OFFSET -13.004037 -18.254700 -6.226370
            CHANNELS 3 Zrotation Xrotation Yrotation
            JOINT HandRight
            {
              OFFSET -0.900429 -4.234799 -7.516643
              CHANNELS 3 Zrotation Xrotation Yrotation
              JOINT HandTipRight
              {
                OFFSET -5.000616 -6.596171 -1.020352
                CHANNELS 3 Zrotation Xrotation Yrotation
                End Site
                {
                  OFFSET 0 0 0
                }
              }
              JOINT ThumbRight
              {
                OFFSET 1.059942 -5.350585 0.618446
                CHANNELS 3 Zrotation Xrotation Yrotation
                End Site
                {
                  OFFSET 0 0 0
                }
              }
            }
          }
        }
      }
    }
  }
  JOINT HipLeft
  {
    OFFSET -7.224880 1.135217 -5.111082
    CHANNELS 3 Zrotation Xrotation Yrotation
    JOINT KneeLeft
    {
      OFFSET 0.920089 -28.466875 0.305385
      CHANNELS 3 Zrotation Xrotation Yrotation
      JOINT AnkleLeft
      {
        OFFSET 1.224634 -34.954257 -1.827935
        CHANNELS 3 Zrotation Xrotation Yrotation
        JOINT FootLeft
        {
          OFFSET 3.088359 -4.156262 3.658401
          CHANNELS 3 Zrotation Xrotation Yrotation
          End Site
          {
            OFFSET 0 0 0
          }
        }
      }
    }
  }
  JOINT HipRight
  {
    OFFSET 5.391322 1.063952 -2.179919
    CHANNELS 3 Zrotation Xrotation Yrotation
    JOINT KneeRight
    {
      OFFSET 4.646522 -29.139216 4.721653
      CHANNELS 3 Zrotation Xrotation Yrotation
      JOINT AnkleRight
      {
        OFFSET 3.034847 -34.518488 5.613730
        CHANNELS 3 Zrotation Xrotation Yrotation
        JOINT FootRight
        {
          OFFSET 0.489306 -4.422669 -8.862494
          CHANNELS 3 Zrotation Xrotation Yrotation
          End Site
          {
            OFFSET 0 0 0
          }
        }
      }
    }
  }
}
MOTION
Frames: 5
Frame Time: 0.033333
72.722870 68.097035 300.721831 -0.000000 0.000000 -13.079668 -0.000000 0.000000 13.079668 -0.000000 0.000000 0.000000 -0.000000 0.000000 0.000000 0.000000 0.000000 0.000000 -0.000000 0.000000 0.000000 -0.000000 0.000000 0.000000 -0.000000 0.000000 0.000000 -0.000000 0.000000 0.000000 0.000000 0.000000 0.000000 0.000000 0.000000 0.000000 -0.000000 0.000000 0.000000 -0.000000 0.000000 0.000000 -0.000000 0.000000 0.000000 -0.000000 0.000000 0.000000 0.000000 0.000000 0.000000 0.000000 0.000000 0.000000 -0.000000 0.000000 13.079668 -0.000000 0.000000 0.000000 -0.000000 0.000000 0.000000 0.000000 0.000000 0.000000 -0.000000 0.000000 13.079668 -0.000000 0.000000 0.000000 -0.000000 0.000000 0.000000 0.000000 0.000000 0.000000
72.839100 68.098335 300.847975 0.146098 -0.113833 -13.695765 -0.168896 0.076005 13.696023 -0.000000 0.000000 0.000000 0.266863 1.493856 0.400185 0.000000 0.000000 0.000000 -0.000000 0.000000 0.000000 -0.000000 0.000000 0.000000 0.809338 -0.727083 0.065962 -0.808565 0.727942 -0.055690 0.000000 0.000000 0.000000 0.000000 0.000000 0.000000 -0.000000 0.000000 0.000000 -0.000000 0.000000 0.000000 -0.000000 0.000000 0.000000 0.846362 -0.791846 0.478427 0.000000 0.000000 0.000000 0.000000 0.000000 0.000000 -0.168896 0.076005 13.696023 -0.000000 0.000000 0.000000 12.195859 -5.816482 6.284849 0.000000 0.000000 0.000000 -0.168896 0.076005 13.696023 -0.000000 0.000000 0.000000 -0.459204 -1.327200 0.786627 0.000000 0.000000 0.000000
72.925203 68.110589 300.956590 0.258756 -0.208696 -14.367902 -0.302451 0.137956 14.368737 -0.000000 0.000000 0.000000 0.534927 2.681871 0.694582 0.000000 0.000000 0.000000 -0.000000 0.000000 0.000000 -0.000000 0.000000 0.000000 1.470503 -1.428077 0.071833 -2.958247 1.776340 -0.269279 0.000000 0.000000 0.000000 0.000000 0.000000 0.000000 0.555976 -0.731489 -0.161610 -0.558083 0.729883 0.168713 -0.104473 -0.881382 0.377115 1.588960 -0.616061 0.525546 0.000000 0.000000 0.000000 0.000000 0.000000 0.000000 -0.302451 0.137956 14.368737 -0.000000 0.000000 0.000000 20.158057 -8.687800 10.817312 0.000000 0.000000 0.000000 -1.037991 0.704216 14.398088 1.189473 0.237922 0.168188 -1.247588 -2.906809 0.851703 0.000000 0.000000 0.000000
72.981180 68.133799 301.047676 0.337944 -0.284584 -15.096047 -0.400400 0.186745 15.097539 -0.000000 0.000000 0.000000 0.811825 3.588214 0.892141 0.000000 0.000000 0.000000 -0.000000 0.000000 0.000000 -0.000000 0.000000 0.000000 1.986101 -2.105975 0.015587 -4.098947 2.700648 -0.227410 0.000000 0.000000 0.000000 0.000000 0.000000 0.000000 0.763687 -0.990828 -0.212873 -0.767477 0.987895 0.226094 -0.101595 -1.201074 0.442805 2.008622 -0.893361 0.849864 0.000000 0.000000 0.000000 0.000000 0.000000 0.000000 -0.400400 0.186745 15.097539 -0.000000 0.000000 0.000000 24.921098 -10.044593 13.652373 0.000000 0.000000 0.000000 -1.400976 0.962201 15.144828 1.680343 0.483885 0.254472 -1.413190 -3.276884 0.474872 0.000000 0.000000 0.000000
73.007031 68.167965 301.121231 0.383605 -0.341480 -15.880001 -0.462405 0.223477 15.882046 -0.000000 0.000000 0.000000 1.103557 4.231015 0.999491 0.000000 0.000000 0.000000 -0.000000 0.000000 0.000000 -0.000000 0.000000 0.000000 2.358176 -2.763311 -0.104849 -4.966991 3.640420 -0.069193 0.000000 0.000000 0.000000 0.000000 0.000000 0.000000 0.925245 -1.179549 -0.245567 -0.930487 1.175419 0.264636 -0.062741 -1.436983 0.425554 2.168874 -1.142479 1.212199 0.000000 0.000000 0.000000 0.000000 0.000000 0.000000 -0.462405 0.223477 15.882046 -0.000000 0.000000 0.000000 27.400371 -10.629264 15.164969 0.000000 0.000000 0.000000 -1.657567 1.160883 15.947910 2.094573 0.807856 0.337934 -1.262448 -2.922184 -0.415813 0.000000 0.000000 0.000000
